<svg xmlns="http://www.w3.org/2000/svg" viewBox="0 0 900 620" role="img" aria-labelledby="title desc">
  <title id="title">Kenneth's learning lab illustration</title><desc id="desc">A stylised wooden desk with a laptop, notebook, and growing plant.</desc>
  <rect width="900" height="620" fill="#e1e0dd"/><path d="M0 460h900v160H0z" fill="#9b6845"/>
  <path d="M0 510c160-35 280 30 455-5s290 24 445-18M0 568c180-22 330 28 520-4s250 14 380-15" fill="none" stroke="#67442e" stroke-opacity=".34" stroke-width="4"/>
  <rect x="315" y="181" width="348" height="232" rx="12" fill="#484642"/><rect x="333" y="198" width="312" height="198" rx="5" fill="#f1f1ef"/>
  <path d="M468 258c45-39 87 26 132-7M444 309c36-38 83 32 130-8" fill="none" stroke="#9b6845" stroke-width="11" stroke-linecap="round"/>
  <path d="M282 416h413l43 43H242z" fill="#3d3d3b"/><path d="M418 430h145l-12 12H430z" fill="#c6c4bf"/>
  <rect x="93" y="321" width="137" height="138" rx="8" fill="#f1f1ef" transform="rotate(-10 93 321)"/><path d="m120 350 81-14m-75 41 81-14m-75 41 81-14" stroke="#9b6845" stroke-width="5" stroke-linecap="round" opacity=".7"/>
  <path d="M763 420V217" stroke="#67442e" stroke-width="8" stroke-linecap="round"/><path d="M763 263c-83-54-91-126-26-98 49 21 47 72 26 98Zm0 62c79-60 124-6 75 39-35 31-68-12-75-39Zm0-120c94 5 91-78 27-77-46 1-42 55-27 77Z" fill="#687256"/>
  <path d="M755 413h-50l13 38h74l13-38z" fill="#484642"/><path d="M698 451h114l-12 38H710z" fill="#3d3d3b"/>
</svg>
